<?xml version="1.0" encoding="utf-8"?>
<!-- Generator: Adobe Illustrator 24.1.0, SVG Export Plug-In . SVG Version: 6.00 Build 0)  -->
<svg version="1.1" id="Layer_1" xmlns="http://www.w3.org/2000/svg" xmlns:xlink="http://www.w3.org/1999/xlink" x="0px" y="0px"
	 viewBox="0 0 129.4 120.8" style="enable-background:new 0 0 129.4 120.8;" xml:space="preserve">
<style type="text/css">
	.st0{fill:#F7BE00;}
</style>
<path class="st0" d="M126.4,104.1c-2.8-1.5-3.4-4.7-4.7-6.7s-2.8-2.1-8.1-2.7c-1.7-0.2-3.4-0.6-5-1.2c-1-0.3-1.6-1.3-1.4-2.3
	c0.5-2.4,0.5-4.8,0-7.2c1.8,1.3,3.1,3.2,3.8,5.3c1.6-14.4-6.6-16.6-10.5-19.4c-2.4-1.7-4.1-4.1-4.9-6.9c-0.2-0.8-0.5-2.8,1.4-3.1
	c2.3-0.1,4.6,0.2,6.7,1.1v4c4.6-1.5,5.1-7,5-9.3c0-0.7-0.4-1.2-1.1-1.4l-6.6-2.2c0.8-1,0.7-2.4-0.3-3.2c-0.6-0.5-1.3-1-2-1.4
	c-0.4-2.8-2.1-5.2-4.6-6.5c0.6,1.6,0.9,3.3,0.9,5c-2.4-0.6-4.9-0.9-7.3-0.7c-0.4,0-0.7-0.1-1-0.3l-11.4-8.4c0,2.2,0.7,4.3,2.1,6
	c1.4,1.8,7.3,7.8,7.3,7.8l-2.4-1.4c-0.6-0.4-1.4-0.3-1.8,0.3c0,0,0,0,0,0C76.8,55,77,62.7,77.5,66.9c0.1,0.8-0.5,1.4-1.2,1.5
	c-0.3,0-0.6,0-0.9-0.2c-3-1.8-3.5-5.3-3.5-7.3c0-0.5,0.1-1,0.2-1.4c0.6-2.6,2.8-12,2.8-12c0.5-2-0.4-4.1-2.2-5.2
	c0,0-6.7-4.3-22.1-23C46.2,14,41,6.9,40,0c0,0-5.6,3.7-0.7,15.2c-2.2-2.2-4-4.7-5.4-7.4c0,0-2.2,3.9,2,11.4c-1.8-1.1-3.4-2.4-4.8-4
	c0,0,0,0.1,0,0.1c-0.3,3,1.2,5.9,3.8,7.3l21.3,12.2L30.9,23.2c-1.7-0.8-3.2-1.6-4.8-2.6C22.3,18,15.4,13.1,12.3,7.7
	c0,0-5.4,7,6,18.4c1.1,1.1,2.4,2.2,3.6,3.1c-5.1-2.4-9.8-5.6-13.9-9.4c0,0-4,8.5,9.7,16.8c2.7,1.6,5.5,2.9,8.5,3.9
	c-6.8-1.5-13.4-3.9-19.5-7.3c0,0-0.7,9.1,15.4,14.6c1.9,0.7,3.9,1.2,5.9,1.6c-5.6-0.2-11.2-1.1-16.5-2.6c0,0,2.6,7.9,17.9,9.7
	c1,0.1,2,0.2,3.1,0.3c-4.6,0.6-9.3,0.8-14,0.4c0,0,4.9,6.3,18,6c-3,0.8-6.1,1.3-9.2,1.5c0,0,6.5,5.2,18.5,3.1
	c-1.6,0.9-3.3,1.7-5.1,2.4c2.2,1.2,4.8,1.5,7.2,1c11.1-2.2,12.6,3,9.2,3l-10.7-0.4C35.5,73.4,29.9,78,26,83l0,0
	c0,0-6.7,9.1-14.5,7.9c-4.7-0.6-8.1-4.6-8.1-9.3c0.1-5.3,3.6-8.9,9.4-9.4c0.2,0,1.2-0.1,1.4,0.7c0.2,0.9,0.7,1.7,1.3,2.3
	c3.8,3.6,11.4,0.5,13.6-1.5c0.2-0.2,0.2-0.5,0-0.7c0,0-0.1-0.1-0.1-0.1c-1.8-0.9-3.5-2.1-4.9-3.6c-3.3-3.6-6.7-2.2-8.6-0.3
	c-0.2,0.2-0.5,0.3-0.8,0.3c-1.3-0.1-15.2-0.5-14.8,14c0.2,6,4.6,11,10.5,12c5.7,1,11.5-0.8,15.6-4.8c4.7-4.4,5.5-6,5.5-6
	c-0.7,6.9-6.7,16.3-18.7,17.9c-0.7,0.1-1.2,0.6-1.3,1.3L10.1,115c-0.1,0.5,0.1,0.9,0.4,1.2l3.2,3.2c0.9,0.9,2.1,1.4,3.3,1.4h9.6
	c0,0-0.1-3.5-4.2-4.5s-4.3-8.4,0.9-8.4c4.9,0,12.2,0.3,17.8-7.8c0.8-1.2,1.9-4.1,6.1-3.9c-3.6,0.7-4,3.1-4,3.1c3,1.4,6.1,4,3.9,13.5
	c-0.1,0.5,0,1,0.4,1.4l5.3,5.2c0.9,0.9,2.1,1.4,3.3,1.4h10.7c0,0,0.1-3.9-4.7-5s-5.8-3.2-5.2-6.1c0.3-1.4,1.9-4.4,3-7
	c0.3-0.7,0.1-1.5-0.4-2l-3.4-3.3c0,0,7,5.3,15.1,6.5c0.8,0.1,1.5-0.5,1.6-1.3c0-0.1,0-0.3,0-0.4c-0.3-1.6-1.1-3.1-2.3-4.3
	c2.8,2,4.5,5.3,4.4,8.8c0,0.7,0.5,1.2,1.1,1.4c4.6,1,8.8,3.3,12,6.7c0.4,0.4,0.5,1,0.1,1.4c-0.1,0.2-0.3,0.3-0.6,0.3
	c-0.8,0.3-3.2-1-4.6,0.5c-1.6,1.7,0.1,3.7,0.1,3.7s0.1-0.8,1.3-0.8c0.3,0,0.7,0.1,0.9,0.3c0.5,0.3,1.1,0.5,1.7,0.5h5.3
	c0.5,0,1-0.1,1.4-0.4c0.7-0.4,1.6-0.5,2.4-0.1c0.5,0.3,1.1,0.5,1.6,0.5h7c1.3,0,2.3-0.5,2.3-1.8c0.8,0.1,2.4,0,2.7,1.8
	c1-0.8,1.2-2.2,0.5-3.3c-2.1-3.9-11.6,0.4-16.8-6.3c-1.5-1.8-2.7-3.7-3.7-5.8c-0.3-0.7,0-1.6,0.7-1.9c0.1,0,0.1-0.1,0.2-0.1
	c2.3-0.6,4.5-1.4,6.6-2.6c-0.6,0.8-1.3,1.4-2.1,2l2.5,1c0.6,0.2,1.2,0.1,1.6-0.4c1.3-1.4,4.6-4.2,9-4.1l1.9,0.1c0,0-3.3,1.2-4,3.5
	c-0.4,1.3,0.2,2.7,1.4,3.4c-0.3-0.6-0.1-1.3,0.4-1.6c0.6-0.4,1.4-0.4,2.7-1.1s2.2-2.7,4.4-2.8s3.4,3.4,4,6.3s1.7,1.4,1.9,3.3
	c0.1,1-0.5,1.9-1.5,2.1c0,0,0.7,1,2.8,0.2s1.6-3.3,1.6-3.3l-0.9-3.1c1.3,1.9,3.8,1.6,4.5,2.3s0,2.4,0,2.4c1-0.4,1.8-1.4,1.9-2.5
	C129.6,107.1,129.3,105.6,126.4,104.1z"/>
</svg>
